<svg width="191" height="102" viewBox="0 0 191 102" fill="none" xmlns="http://www.w3.org/2000/svg">
<path d="M0 7C0 3.13401 3.13401 0 7 0H184C187.866 0 191 3.13401 191 7V95C191 98.866 187.866 102 184 102H7C3.13401 102 0 98.866 0 95V7Z" fill="white"/>
<path d="M70.5098 36.9092H56.1367V76H46.4688V36.9092H32.2891V29.0781H70.5098V36.9092Z" fill="black"/>
<path d="M87 31C87 29.3431 88.3431 28 90 28H137C138.657 28 140 29.3431 140 31V74C140 75.6569 138.657 77 137 77H90C88.3431 77 87 75.6569 87 74V31Z" fill="#26BEFF"/>
<path d="M138.103 53.7656L168.818 34.9648L169.082 72.2376L138.103 53.7656Z" fill="#26BEFF"/>
</svg>
