<svg width="247" height="127" viewBox="0 0 247 127" fill="none" xmlns="http://www.w3.org/2000/svg">
<path d="M0 16C0 7.16344 7.16344 0 16 0H231C239.837 0 247 7.16344 247 16V111C247 119.837 239.837 127 231 127H16C7.16344 127 0 119.837 0 111V16Z" fill="#151348"/>
<path d="M178.251 68.5948C174.777 67.3142 174.738 62.4162 178.19 61.1032L207.12 50.1005C209.727 49.109 212.53 51.029 212.553 53.821L212.728 75.5547C212.75 78.3467 209.978 80.2927 207.355 79.3258L178.251 68.5948Z" fill="#26BEFF"/>
<path d="M103 38C103 34.6863 105.686 32 109 32H167C170.314 32 173 34.6863 173 38V89C173 92.3137 170.314 95 167 95H109C105.686 95 103 92.3137 103 89V38Z" fill="#26BEFF"/>
<path d="M84.2852 43.248H65.9922V93H53.6875V43.248H35.6406V33.2812H84.2852V43.248Z" fill="white"/>
</svg>
